<svg width="188" height="211" fill="none" xmlns="http://www.w3.org/2000/svg"><path d="M22.118 156.35c8.497 14.448 33.942 36.383 67.746 8.539m0 0c42.254-34.805.498-58.796-24.687-42.574-25.186 16.222-4.372 46.603 24.687 42.574Zm0 0c11.802.15 38.39-2.719 50.326-15.394 14.92-15.844 7.31-52.057-4.19-72.057" stroke="#C4C4C4" stroke-opacity=".7" stroke-width="3" stroke-dasharray="9 9"/><path d="M116.447 51.669c.423-6.715 8.442-9.94 13.397-5.388l15.614 14.347c4.332 3.98 3.031 11.118-2.427 13.313l-16.947 6.816c-5.458 2.195-11.339-2.054-10.969-7.925l1.332-21.163Z" fill="#C4C4C4" /></svg>